<svg xmlns="http://www.w3.org/2000/svg" width="64" height="64" id="cherry"><g fill="none" fill-rule="evenodd"><path fill="#E34361" d="M29.547 48.48c0 7.41-6.007 13.416-13.416 13.416-7.41 0-13.416-6.007-13.416-13.416 0-7.409 6.005-11.316 13.416-11.316 7.41 0 13.416 3.907 13.416 11.316"></path><path fill="#BC395B" d="M23.602 38.778c1.764 1.843 2.823 4.32 2.823 7.418 0 7.409-6.006 13.415-13.415 13.415-2.268 0-4.401-.567-6.273-1.56a13.367 13.367 0 0 0 9.394 3.846c7.41 0 13.416-6.007 13.416-13.416 0-4.644-2.36-7.91-5.945-9.703"></path><path fill="#454849" d="M16.13 38.878c-5.398 0-11.701 2.515-11.701 9.604 0 6.45 5.249 11.701 11.702 11.701 6.452 0 11.701-5.25 11.701-11.701 0-7.089-6.303-9.604-11.701-9.604m0 24.734C7.787 63.612 1 56.825 1 48.482 1 40.687 7.08 35.45 16.13 35.45s15.13 5.237 15.13 13.032c0 8.343-6.787 15.13-15.13 15.13"></path><path fill="#454849" d="M16.13 46.98c-3.608 0-5.202-1.883-5.372-2.1a1.715 1.715 0 0 1 2.69-2.126c.003.001.768.797 2.683.797 1.926 0 2.687-.806 2.72-.84.624-.68 1.694-.77 2.397-.172.702.598.828 1.618.255 2.342-.17.216-1.764 2.098-5.372 2.098"></path><path fill="#FEFEFE" d="M13.146 50.03c-3.597 0-5.52-2.591-5.604-2.704a1.285 1.285 0 0 1 2.076-1.52c.067.09 1.385 1.779 3.745 1.647.712-.078 1.31.519 1.34 1.229.032.708-.519 1.31-1.228 1.339a7.153 7.153 0 0 1-.33.008"></path><path fill="#E34361" d="M61.36 48.48c0 7.41-6.007 13.416-13.417 13.416S34.528 55.89 34.528 48.48c0-7.409 6.005-11.316 13.415-11.316 7.41 0 13.416 3.907 13.416 11.316"></path><path fill="#BC395B" d="M55.414 38.778c1.764 1.843 2.824 4.32 2.824 7.418 0 7.409-6.007 13.415-13.416 13.415-2.268 0-4.4-.567-6.273-1.56a13.367 13.367 0 0 0 9.395 3.846c7.409 0 13.416-6.007 13.416-13.416 0-4.644-2.361-7.91-5.946-9.703"></path><path fill="#454849" d="M47.943 38.878c-5.398 0-11.701 2.515-11.701 9.604 0 6.45 5.249 11.701 11.701 11.701 6.453 0 11.702-5.25 11.702-11.701 0-7.089-6.304-9.604-11.702-9.604m0 24.734c-8.343 0-15.13-6.787-15.13-15.13 0-7.795 6.08-13.032 15.13-13.032s15.13 5.237 15.13 13.032c0 8.343-6.786 15.13-15.13 15.13"></path><path fill="#454849" d="M47.943 46.98c-3.608 0-5.203-1.883-5.372-2.1a1.715 1.715 0 0 1 2.69-2.126c.003.001.767.797 2.682.797 1.927 0 2.688-.806 2.72-.84.623-.68 1.695-.77 2.397-.172.702.598.827 1.618.256 2.342-.17.214-1.764 2.098-5.373 2.098"></path><path fill="#FEFEFE" d="M44.958 50.03c-3.598 0-5.521-2.591-5.604-2.704a1.285 1.285 0 0 1 2.075-1.52c.061.081 1.345 1.74 3.747 1.647.73-.078 1.31.519 1.34 1.229.032.708-.519 1.31-1.228 1.339a7.153 7.153 0 0 1-.33.008"></path><path fill="#454849" d="M16.13 46.256h-.003a1.715 1.715 0 0 1-1.71-1.718c.01-4.863 2.583-7.933 5.072-10.9 3.644-4.348 7.414-8.847 5.125-20.224a1.715 1.715 0 0 1 1.343-2.02 1.71 1.71 0 0 1 2.02 1.343c2.613 12.996-2.085 18.6-5.86 23.103-2.383 2.84-4.265 5.086-4.272 8.705a1.714 1.714 0 0 1-1.714 1.71"></path><path fill="#454849" d="M47.942 46.98c-.777 0-1.48-.532-1.667-1.323-.084-.356-8.658-35.686-26.799-32.804-.924.156-1.814-.488-1.963-1.424a1.715 1.715 0 0 1 1.427-1.962C40.205 6.11 49.238 43.287 49.61 44.872a1.713 1.713 0 0 1-1.67 2.107"></path><path fill="#3BB777" d="M49.594 5.787c-18.905-11.6-22.09 5.29-22.09 5.29s10.49 13.615 22.09-5.29"></path><path fill="#229857" d="m49.594 5.787-22.09 5.29s10.49 13.615 22.09-5.29"></path><path fill="#454849" d="M29.393 10.624c1.133 1.178 4.008 3.7 7.565 3.468 3.47-.193 6.905-2.79 10.229-7.728-5.2-2.893-9.439-3.654-12.622-2.259-3.29 1.445-4.694 4.954-5.172 6.52m7.141 6.91c-6.145 0-10.213-5.184-10.388-5.412a1.715 1.715 0 0 1-.326-1.365c.055-.291 1.41-7.155 7.334-9.778 4.579-2.03 10.41-.904 17.336 3.346a1.717 1.717 0 0 1 .566 2.359c-4.25 6.922-8.94 10.568-13.94 10.832-.196.012-.39.018-.582.018"></path></g></svg>