<svg xmlns="http://www.w3.org/2000/svg" viewBox="0 0 48 48" id="orange"><ellipse cx="24" cy="44.8" fill="#45413c" opacity=".15" rx="12" ry="1.6"></ellipse><circle cx="24" cy="28.1" r="16.7" fill="#ffaa54"></circle><path fill="#fc9" d="M24 15.6c8.5 0 15.6 6.4 16.6 14.6.1-.7.1-1.4.1-2.1 0-9.2-7.5-16.7-16.7-16.7S7.3 18.9 7.3 28.1c0 .7.1 1.4.1 2.1 1-8.3 8.1-14.6 16.6-14.6z"></path><circle cx="24" cy="28.1" r="16.7" fill="none" stroke="#45413c" stroke-linecap="round" stroke-linejoin="round" stroke-miterlimit="10"></circle><path fill="#6dd627" d="M15.6 14s-2.7-3.3-.9-6.9 1.7-5.5 1.7-5.5 4.6 1.3 4.4 6c-.2 4.7-5.2 6.4-5.2 6.4z"></path><path fill="#9ceb60" d="M16.3 8.8c1.8-3.1 2.3-5.1 2.4-5.9-1.1-.9-2.3-1.2-2.3-1.2s.1 2-1.7 5.5c-1.8 3.6.9 6.9.9 6.9s.1 0 .1-.1c-.5-1.5-.6-3.3.6-5.2z"></path><path fill="none" stroke="#45413c" stroke-linecap="round" stroke-linejoin="round" stroke-miterlimit="10" d="M15.6 14s-2.7-3.3-.9-6.9 1.7-5.5 1.7-5.5 4.6 1.3 4.4 6c-.2 4.7-5.2 6.4-5.2 6.4z"></path><path fill="#6dd627" d="M17 16.3c-.2.2-.5.4-.9.6-.4.2-.7.3-1 .4-.3-.4-1.4-2.2-3.3-2.9-2.5-.9-3.1 2.2-3.5-1.1-.3-3.3 2-3.9 5.2-1.5 2.2 1.7 3.2 3.9 3.5 4.5z"></path><path fill="#9ceb60" d="M17 16.3c-.2.2-.4.4-.8.6-.6-.9-1.5-2-2.7-3-2.6-2-4.7-2-5.1-.1 0-.2-.1-.3-.1-.5-.3-3.3 2-3.9 5.2-1.5 2.2 1.7 3.2 3.9 3.5 4.5z"></path><path fill="none" stroke="#45413c" stroke-linecap="round" stroke-linejoin="round" stroke-miterlimit="10" d="M17 16.3c-.2.2-.5.4-.9.6-.4.2-.7.3-1 .4-.3-.4-1.4-2.2-3.3-2.9-2.5-.9-3.1 2.2-3.5-1.1-.3-3.3 2-3.9 5.2-1.5 2.2 1.7 3.2 3.9 3.5 4.5z"></path><path fill="none" stroke="#45413c" stroke-linecap="round" stroke-linejoin="round" stroke-miterlimit="10" d="M14 17.4s.5.3 2.1-.5 1.6-2.1 1.6-2.1M15.6 14s-.6-4.2.9-6.2"></path></svg>